<svg width="803" height="126" viewBox="0 0 803 126" fill="none" xmlns="http://www.w3.org/2000/svg">
<path d="M72.2712 0.70636C106.55 8.45852 124.988 31.8879 124.857 66.7849C124.784 85.9322 124.844 105.08 124.844 124.562C116.612 124.562 108.846 124.562 100.262 124.562C100.262 119.884 100.262 115.243 100.262 110.602C100.26 94.3011 100.428 77.9977 100.213 61.6993C99.9685 43.1597 85.7203 27.1601 67.9852 25.0727C48.1777 22.7415 30.8654 34.0826 25.9643 52.6C21.0561 71.1442 30.1895 89.8172 47.8508 97.2524C49.6778 98.0215 51.6184 98.5207 54.1577 99.3606C54.1577 86.8404 54.1577 74.9923 54.1577 62.7866C61.5555 62.7866 68.453 62.7866 75.6617 62.7866C75.6617 83.2438 75.6617 103.616 75.6613 123.99C38.4841 130.087 9.11069 107.887 1.6182 76.1967C-6.20313 43.1153 15.1248 8.93015 48.3941 1.82598C55.9145 0.220095 63.9358 0.961228 72.2712 0.70636Z" fill="#3063E6"/>
<path d="M187.249 114.231C187.248 117.891 187.248 120.96 187.248 124.476C179.085 124.476 171.188 124.476 162.602 124.476C162.602 120.266 162.592 116.204 162.604 112.143C162.651 95.2278 162.731 78.3129 162.75 61.398C162.779 35.3577 145.236 11.5142 119.881 3.07011C118.368 2.56595 116.852 2.0681 114.884 1.41755C145.092 -5.94805 178.48 16.2458 185.678 48.1845C186.755 52.9655 187.174 57.9793 187.224 62.8922C187.393 79.806 187.264 96.7228 187.249 114.231Z" fill="#3063E6"/>
<path d="M350.381 58.7161V67.96C350.381 85.0784 344.903 98.9443 333.947 109.558C322.991 120.171 308.84 125.478 291.494 125.478C273.006 125.478 257.656 119.486 245.445 107.504C233.348 95.4065 227.3 80.6847 227.3 63.3381C227.3 45.8773 233.291 31.0984 245.274 19.0014C257.371 6.90442 272.321 0.855919 290.124 0.855919C301.308 0.855919 311.522 3.42368 320.766 8.5592C330.01 13.5806 337.2 20.3138 342.335 28.7589L322.135 40.3994C319.282 35.4921 314.946 31.4978 309.125 28.4165C303.419 25.3352 297.028 23.7946 289.953 23.7946C278.541 23.7946 269.126 27.5606 261.708 35.0927C254.404 42.5107 250.752 51.9258 250.752 63.3381C250.752 74.6362 254.461 83.9942 261.879 91.4122C269.411 98.7161 279.339 102.368 291.665 102.368C300.795 102.368 308.327 100.371 314.261 96.3765C320.31 92.2681 324.418 86.6761 326.586 79.6005H290.295V58.7161H350.381Z" fill="#111111"/>
<path d="M377.112 27.2183C373.46 27.2183 370.265 25.9058 367.526 23.281C364.901 20.5421 363.589 17.3466 363.589 13.6947C363.589 10.0428 364.901 6.84736 367.526 4.10841C370.265 1.36947 373.46 0 377.112 0C380.878 0 384.074 1.36947 386.699 4.10841C389.438 6.84736 390.807 10.0428 390.807 13.6947C390.807 17.3466 389.438 20.5421 386.699 23.281C384.074 25.9058 380.878 27.2183 377.112 27.2183ZM366.156 123.081V37.4893H388.239V123.081H366.156Z" fill="#111111"/>
<path d="M430.534 52.2111C432.588 46.7332 435.954 42.6248 440.634 39.8859C445.427 37.1469 450.733 35.7774 456.554 35.7774V60.4279C449.82 59.6291 443.772 60.9985 438.408 64.5363C433.158 68.0741 430.534 73.9514 430.534 82.1683V123.081H408.451V37.4893H430.534V52.2111Z" fill="#111111"/>
<path d="M564.133 35.0927C573.948 35.0927 581.765 38.2881 587.586 44.679C593.52 51.0699 596.487 59.6291 596.487 70.3566V123.081H574.404V71.8973C574.404 66.7617 573.149 62.7674 570.638 59.9144C568.128 57.0613 564.59 55.6348 560.025 55.6348C555.004 55.6348 551.066 57.2896 548.213 60.5991C545.474 63.9087 544.105 68.7018 544.105 74.9786V123.081H522.022V71.8973C522.022 66.7617 520.767 62.7674 518.256 59.9144C515.745 57.0613 512.208 55.6348 507.643 55.6348C502.735 55.6348 498.798 57.2896 495.831 60.5991C492.978 63.9087 491.551 68.7018 491.551 74.9786V123.081H469.469V37.4893H491.551V46.562C496.687 38.9158 504.618 35.0927 515.346 35.0927C525.845 35.0927 533.606 39.2011 538.627 47.4179C544.333 39.2011 552.835 35.0927 564.133 35.0927Z" fill="#111111"/>
<path d="M680.292 37.4893H702.375V123.081H680.292V112.981C673.673 121.312 664.372 125.478 652.389 125.478C640.977 125.478 631.163 121.141 622.946 112.468C614.843 103.68 610.792 92.9529 610.792 80.2853C610.792 67.6177 614.843 56.9472 622.946 48.2739C631.163 39.4864 640.977 35.0927 652.389 35.0927C664.372 35.0927 673.673 39.2582 680.292 47.5891V37.4893ZM639.551 97.746C644.001 102.197 649.65 104.422 656.498 104.422C663.345 104.422 668.994 102.197 673.445 97.746C678.01 93.1811 680.292 87.3609 680.292 80.2853C680.292 73.2097 678.01 67.4465 673.445 62.9957C668.994 58.4308 663.345 56.1483 656.498 56.1483C649.65 56.1483 644.001 58.4308 639.551 62.9957C635.1 67.4465 632.874 73.2097 632.874 80.2853C632.874 87.3609 635.1 93.1811 639.551 97.746Z" fill="#111111"/>
<path d="M769.989 35.0927C779.347 35.0927 787.05 38.2311 793.099 44.5078C799.261 50.7846 802.343 59.4579 802.343 70.5278V123.081H780.26V73.2667C780.26 67.5606 778.719 63.2239 775.638 60.2567C772.556 57.1754 768.448 55.6348 763.312 55.6348C757.606 55.6348 753.042 57.4037 749.618 60.9415C746.194 64.4793 744.482 69.786 744.482 76.8616V123.081H722.4V37.4893H744.482V47.0756C749.846 39.087 758.348 35.0927 769.989 35.0927Z" fill="#111111"/>
</svg>
