<svg width="221" height="64" viewBox="0 0 221 64" fill="none" xmlns="http://www.w3.org/2000/svg">
<rect y="0.870239" width="62.2595" height="62.2595" rx="5.15394" fill="#4786FF"/>
<path d="M25.7822 16.9549C34.1945 18.8569 38.7195 24.6052 38.6872 33.167C38.6695 37.8648 38.6841 42.5626 38.6841 47.3424C36.6638 47.3424 34.7582 47.3424 32.6514 47.3424C32.6514 46.1948 32.6514 45.0561 32.6513 43.9175C32.6511 39.918 32.6922 35.918 32.6394 31.9193C32.5794 27.3707 29.0828 23.4452 24.7303 22.9331C19.8694 22.3611 15.6207 25.1436 14.4179 29.6868C13.2134 34.2366 15.4549 38.8179 19.7891 40.6421C20.2375 40.8308 20.7138 40.9533 21.3369 41.1594C21.3369 38.0876 21.3369 35.1807 21.3369 32.1861C23.1524 32.1861 24.8452 32.1861 26.6143 32.1861C26.6143 37.2052 26.6143 42.2035 26.6141 47.202C17.4904 48.698 10.2819 43.2513 8.44312 35.4762C6.52368 27.3598 11.7578 18.9726 19.9225 17.2296C21.7681 16.8356 23.7366 17.0174 25.7822 16.9549Z" fill="white"/>
<path d="M53.9992 44.8073C53.9992 45.7055 53.9992 46.4584 53.9992 47.3211C51.9957 47.3211 50.0579 47.3211 47.9507 47.3211C47.9507 46.2882 47.9483 45.2916 47.9511 44.2951C47.9627 40.1451 47.9823 35.9951 47.9869 31.8451C47.9942 25.4562 43.6889 19.6063 37.4666 17.5345C37.0951 17.4108 36.723 17.2887 36.2401 17.1291C43.6536 15.322 51.8473 20.7671 53.6137 28.6032C53.8781 29.7762 53.981 31.0063 53.9931 32.2117C54.0348 36.3614 54.003 40.5119 53.9992 44.8073Z" fill="white"/>
<path d="M94.5686 18.1282C94.097 17.2594 93.4144 16.6017 92.5208 16.1549C91.652 15.6832 90.6219 15.4474 89.4305 15.4474C87.3702 15.4474 85.7196 16.13 84.4785 17.4953C83.2374 18.8356 82.6168 20.6352 82.6168 22.894C82.6168 25.3017 83.2622 27.1882 84.5529 28.5534C85.8685 29.8938 87.6681 30.564 89.9517 30.564C91.5155 30.564 92.8311 30.1668 93.8984 29.3725C94.9906 28.5782 95.7849 27.4364 96.2813 25.9471H88.2018V21.2558H102.052V27.1758C101.581 28.7644 100.774 30.2413 99.6323 31.6065C98.5153 32.9717 97.088 34.0763 95.3505 34.9202C93.6129 35.7642 91.652 36.1862 89.4677 36.1862C86.8862 36.1862 84.5778 35.6277 82.5424 34.5107C80.5318 33.3689 78.9556 31.7927 77.8138 29.7821C76.6968 27.7715 76.1383 25.4755 76.1383 22.894C76.1383 20.3125 76.6968 18.0165 77.8138 16.0059C78.9556 13.9705 80.5318 12.3943 82.5424 11.2774C84.5529 10.1355 86.849 9.56464 89.4305 9.56464C92.558 9.56464 95.1891 10.3217 97.3238 11.8358C99.4833 13.35 100.911 15.4474 101.606 18.1282H94.5686ZM108.781 13.0645C107.664 13.0645 106.746 12.7419 106.026 12.0965C105.331 11.4263 104.983 10.6072 104.983 9.63911C104.983 8.64623 105.331 7.82711 106.026 7.18174C106.746 6.51155 107.664 6.17645 108.781 6.17645C109.873 6.17645 110.767 6.51155 111.462 7.18174C112.182 7.82711 112.542 8.64623 112.542 9.63911C112.542 10.6072 112.182 11.4263 111.462 12.0965C110.767 12.7419 109.873 13.0645 108.781 13.0645ZM111.946 15.224V36H105.579V15.224H111.946ZM122.927 18.6867C123.671 17.5449 124.602 16.6513 125.719 16.0059C126.836 15.3357 128.077 15.0006 129.442 15.0006V21.7398H127.692C126.104 21.7398 124.912 22.0873 124.118 22.7823C123.324 23.4525 122.927 24.644 122.927 26.3567V36H116.56V15.224H122.927V18.6867ZM158.995 15.0006C161.577 15.0006 163.625 15.7825 165.139 17.3463C166.678 18.9101 167.447 21.082 167.447 23.8621V36H161.118V24.7184C161.118 23.378 160.758 22.3479 160.038 21.6281C159.343 20.8834 158.375 20.5111 157.134 20.5111C155.893 20.5111 154.912 20.8834 154.192 21.6281C153.497 22.3479 153.15 23.378 153.15 24.7184V36H146.82V24.7184C146.82 23.378 146.46 22.3479 145.741 21.6281C145.046 20.8834 144.077 20.5111 142.836 20.5111C141.595 20.5111 140.615 20.8834 139.895 21.6281C139.2 22.3479 138.852 23.378 138.852 24.7184V36H132.486V15.224H138.852V17.8303C139.498 16.9616 140.342 16.279 141.384 15.7825C142.427 15.2613 143.606 15.0006 144.921 15.0006C146.485 15.0006 147.875 15.3357 149.092 16.0059C150.333 16.6761 151.301 17.6318 151.996 18.8729C152.716 17.7311 153.696 16.8002 154.937 16.0804C156.178 15.3606 157.531 15.0006 158.995 15.0006ZM170.634 25.5748C170.634 23.4401 171.031 21.566 171.826 19.9526C172.645 18.3392 173.749 17.0981 175.139 16.2293C176.529 15.3606 178.081 14.9262 179.794 14.9262C181.258 14.9262 182.536 15.224 183.629 15.8198C184.745 16.4155 185.602 17.1974 186.198 18.1654V15.224H192.564V36H186.198V33.0586C185.577 34.0267 184.708 34.8085 183.591 35.4043C182.499 36 181.221 36.2979 179.756 36.2979C178.068 36.2979 176.529 35.8635 175.139 34.9947C173.749 34.1011 172.645 32.8476 171.826 31.2342C171.031 29.5959 170.634 27.7095 170.634 25.5748ZM186.198 25.612C186.198 24.0234 185.751 22.7699 184.857 21.8515C183.988 20.9331 182.921 20.4739 181.655 20.4739C180.389 20.4739 179.309 20.9331 178.416 21.8515C177.547 22.7451 177.113 23.9862 177.113 25.5748C177.113 27.1634 177.547 28.4293 178.416 29.3725C179.309 30.291 180.389 30.7502 181.655 30.7502C182.921 30.7502 183.988 30.291 184.857 29.3725C185.751 28.4541 186.198 27.2006 186.198 25.612ZM209.83 15.0006C212.262 15.0006 214.198 15.7949 215.638 17.3836C217.103 18.9473 217.835 21.1068 217.835 23.8621V36H211.505V24.7184C211.505 23.3284 211.145 22.2486 210.425 21.4792C209.706 20.7097 208.738 20.3249 207.521 20.3249C206.305 20.3249 205.337 20.7097 204.617 21.4792C203.897 22.2486 203.537 23.3284 203.537 24.7184V36H197.171V15.224H203.537V17.9793C204.183 17.0609 205.051 16.341 206.144 15.8198C207.236 15.2737 208.465 15.0006 209.83 15.0006Z" fill="#111111"/>
<path d="M86.5266 49.1513V50.422H84.4352V57H82.8609V50.422H80.7694V49.1513H86.5266ZM93.7473 50.422V52.3898H96.3897V53.6379H93.7473V55.7181H96.7271V57H92.173V49.1401H96.7271V50.422H93.7473ZM102.273 53.0644C102.273 52.2923 102.446 51.6026 102.79 50.9954C103.143 50.3807 103.619 49.9047 104.218 49.5674C104.826 49.2225 105.504 49.0501 106.254 49.0501C107.131 49.0501 107.899 49.275 108.559 49.7248C109.219 50.1746 109.68 50.7968 109.942 51.5914H108.132C107.952 51.2166 107.697 50.9355 107.367 50.7481C107.045 50.5606 106.67 50.4669 106.242 50.4669C105.785 50.4669 105.377 50.5756 105.017 50.793C104.664 51.0029 104.387 51.3028 104.185 51.6926C103.99 52.0824 103.892 52.5397 103.892 53.0644C103.892 53.5817 103.99 54.0389 104.185 54.4363C104.387 54.8261 104.664 55.1297 105.017 55.3471C105.377 55.557 105.785 55.6619 106.242 55.6619C106.67 55.6619 107.045 55.5682 107.367 55.3808C107.697 55.1859 107.952 54.901 108.132 54.5262H109.942C109.68 55.3283 109.219 55.9543 108.559 56.404C107.907 56.8463 107.138 57.0675 106.254 57.0675C105.504 57.0675 104.826 56.8988 104.218 56.5615C103.619 56.2166 103.143 55.7406 102.79 55.1334C102.446 54.5262 102.273 53.8365 102.273 53.0644ZM122.295 49.1513V57H120.721V53.6604H117.359V57H115.784V49.1513H117.359V52.3785H120.721V49.1513H122.295ZM135.055 57H133.481L129.916 51.6139V57H128.342V49.1401H129.916L133.481 54.5375V49.1401H135.055V57ZM144.752 57.0787C144.017 57.0787 143.343 56.9063 142.728 56.5615C142.113 56.2166 141.626 55.7406 141.266 55.1334C140.906 54.5187 140.726 53.8253 140.726 53.0532C140.726 52.2886 140.906 51.6026 141.266 50.9954C141.626 50.3807 142.113 49.901 142.728 49.5561C143.343 49.2113 144.017 49.0389 144.752 49.0389C145.494 49.0389 146.169 49.2113 146.776 49.5561C147.391 49.901 147.874 50.3807 148.226 50.9954C148.586 51.6026 148.766 52.2886 148.766 53.0532C148.766 53.8253 148.586 54.5187 148.226 55.1334C147.874 55.7406 147.391 56.2166 146.776 56.5615C146.161 56.9063 145.486 57.0787 144.752 57.0787ZM144.752 55.6731C145.224 55.6731 145.64 55.5682 146 55.3583C146.36 55.1409 146.641 54.8336 146.843 54.4363C147.046 54.0389 147.147 53.5779 147.147 53.0532C147.147 52.5284 147.046 52.0712 146.843 51.6813C146.641 51.284 146.36 50.9804 146 50.7705C145.64 50.5606 145.224 50.4557 144.752 50.4557C144.28 50.4557 143.86 50.5606 143.492 50.7705C143.133 50.9804 142.852 51.284 142.649 51.6813C142.447 52.0712 142.346 52.5284 142.346 53.0532C142.346 53.5779 142.447 54.0389 142.649 54.4363C142.852 54.8336 143.133 55.1409 143.492 55.3583C143.86 55.5682 144.28 55.6731 144.752 55.6731ZM156.009 55.7519H158.596V57H154.435V49.1513H156.009V55.7519ZM167.737 57.0787C167.003 57.0787 166.328 56.9063 165.713 56.5615C165.098 56.2166 164.611 55.7406 164.251 55.1334C163.892 54.5187 163.712 53.8253 163.712 53.0532C163.712 52.2886 163.892 51.6026 164.251 50.9954C164.611 50.3807 165.098 49.901 165.713 49.5561C166.328 49.2113 167.003 49.0389 167.737 49.0389C168.479 49.0389 169.154 49.2113 169.761 49.5561C170.376 49.901 170.859 50.3807 171.212 50.9954C171.572 51.6026 171.751 52.2886 171.751 53.0532C171.751 53.8253 171.572 54.5187 171.212 55.1334C170.859 55.7406 170.376 56.2166 169.761 56.5615C169.147 56.9063 168.472 57.0787 167.737 57.0787ZM167.737 55.6731C168.209 55.6731 168.626 55.5682 168.985 55.3583C169.345 55.1409 169.626 54.8336 169.829 54.4363C170.031 54.0389 170.132 53.5779 170.132 53.0532C170.132 52.5284 170.031 52.0712 169.829 51.6813C169.626 51.284 169.345 50.9804 168.985 50.7705C168.626 50.5606 168.209 50.4557 167.737 50.4557C167.265 50.4557 166.845 50.5606 166.478 50.7705C166.118 50.9804 165.837 51.284 165.634 51.6813C165.432 52.0712 165.331 52.5284 165.331 53.0532C165.331 53.5779 165.432 54.0389 165.634 54.4363C165.837 54.8336 166.118 55.1409 166.478 55.3583C166.845 55.5682 167.265 55.6731 167.737 55.6731ZM182.885 51.5127C182.705 51.1828 182.458 50.9317 182.143 50.7593C181.828 50.5869 181.461 50.5007 181.041 50.5007C180.576 50.5007 180.164 50.6056 179.804 50.8155C179.444 51.0254 179.163 51.3253 178.961 51.7151C178.759 52.1049 178.657 52.5547 178.657 53.0644C178.657 53.5892 178.759 54.0464 178.961 54.4363C179.171 54.8261 179.459 55.1259 179.827 55.3358C180.194 55.5457 180.621 55.6507 181.109 55.6507C181.708 55.6507 182.199 55.4932 182.582 55.1784C182.964 54.856 183.215 54.41 183.335 53.8403H180.636V52.6371H184.887V54.009C184.782 54.5562 184.557 55.0622 184.212 55.527C183.867 55.9917 183.421 56.3666 182.874 56.6514C182.334 56.9288 181.727 57.0675 181.052 57.0675C180.295 57.0675 179.609 56.8988 178.995 56.5615C178.388 56.2166 177.908 55.7406 177.555 55.1334C177.211 54.5262 177.038 53.8365 177.038 53.0644C177.038 52.2923 177.211 51.6026 177.555 50.9954C177.908 50.3807 178.388 49.9047 178.995 49.5674C179.609 49.2225 180.292 49.0501 181.041 49.0501C181.926 49.0501 182.694 49.2675 183.346 49.7023C183.999 50.1296 184.448 50.7331 184.696 51.5127H182.885ZM192.124 49.1513V57H190.549V49.1513H192.124ZM199.751 50.422V52.3898H202.393V53.6379H199.751V55.7181H202.731V57H198.177V49.1401H202.731V50.422H199.751ZM211.369 57.0787C210.822 57.0787 210.327 56.985 209.885 56.7976C209.45 56.6102 209.105 56.3403 208.85 55.988C208.595 55.6357 208.464 55.2196 208.457 54.7399H210.143C210.166 55.0622 210.278 55.3171 210.481 55.5045C210.691 55.6919 210.976 55.7856 211.335 55.7856C211.703 55.7856 211.991 55.6994 212.201 55.527C212.411 55.3471 212.516 55.1147 212.516 54.8298C212.516 54.5974 212.445 54.4063 212.302 54.2563C212.16 54.1064 211.98 53.9902 211.763 53.9078C211.553 53.8178 211.26 53.7204 210.886 53.6154C210.376 53.4655 209.96 53.3193 209.637 53.1769C209.323 53.0269 209.049 52.8058 208.817 52.5134C208.592 52.2136 208.479 51.8163 208.479 51.3215C208.479 50.8567 208.595 50.4519 208.828 50.1071C209.06 49.7623 209.386 49.4999 209.806 49.32C210.226 49.1326 210.706 49.0389 211.245 49.0389C212.055 49.0389 212.711 49.2375 213.213 49.6348C213.723 50.0247 214.004 50.5719 214.057 51.2765H212.325C212.31 51.0067 212.194 50.7855 211.976 50.6131C211.766 50.4332 211.485 50.3433 211.133 50.3433C210.826 50.3433 210.578 50.422 210.391 50.5794C210.211 50.7368 210.121 50.9654 210.121 51.2653C210.121 51.4752 210.188 51.6514 210.323 51.7938C210.466 51.9287 210.638 52.0412 210.841 52.1311C211.05 52.2136 211.343 52.311 211.718 52.4235C212.227 52.5734 212.643 52.7233 212.966 52.8733C213.288 53.0232 213.565 53.2481 213.798 53.5479C214.03 53.8478 214.146 54.2413 214.146 54.7286C214.146 55.1484 214.038 55.5382 213.82 55.898C213.603 56.2579 213.284 56.5465 212.865 56.7639C212.445 56.9738 211.946 57.0787 211.369 57.0787Z" fill="#111111"/>
</svg>
