<svg width="15" height="15" viewBox="0 0 15 15" fill="none" xmlns="http://www.w3.org/2000/svg">
<path d="M10.4354 9.67434L10.0598 10.0702C10.0598 10.0702 9.16591 11.0106 6.72688 8.44293C4.28785 5.87525 5.18175 4.93487 5.18175 4.93487L5.41781 4.68492C6.00136 4.0714 6.05666 3.08558 5.5474 2.36544L4.5074 0.894571C3.8768 0.00313529 2.65935 -0.114849 1.93714 0.645494L0.641272 2.00887C0.283877 2.38642 0.0445135 2.87408 0.0734022 3.41594C0.147687 4.80291 0.740318 7.78572 4.04519 11.2658C7.55062 14.9557 10.8398 15.1025 12.1844 14.9696C12.6103 14.9277 12.98 14.6987 13.278 14.3841L14.4501 13.1501C15.2424 12.3172 15.0196 10.8883 14.006 10.3053L12.4295 9.39729C11.7642 9.01538 10.9554 9.12724 10.4354 9.67434Z" fill="black"/>
</svg>
