<svg width="12" height="15" viewBox="0 0 12 15" fill="none" xmlns="http://www.w3.org/2000/svg">
<path d="M10.183 1.80233C7.95151 -0.600653 4.3335 -0.600653 2.10198 1.80233C1.57216 2.36896 1.15116 3.04583 0.863727 3.79314C0.576292 4.54044 0.428223 5.34311 0.428223 6.15396C0.428223 6.96481 0.576292 7.76748 0.863727 8.51479C1.15116 9.26209 1.57216 9.93896 2.10198 10.5056L6.14215 14.8572L10.183 10.5056C10.7129 9.93896 11.1339 9.26209 11.4213 8.51479C11.7087 7.76748 11.8568 6.96481 11.8568 6.15396C11.8568 5.34311 11.7087 4.54044 11.4213 3.79314C11.1339 3.04583 10.7129 2.36896 10.183 1.80233ZM6.14215 8.21053C5.66499 8.21053 5.21711 8.00722 4.87924 7.63813C4.54476 7.27119 4.35692 6.77399 4.35692 6.25562C4.35692 5.73724 4.54476 5.24004 4.87924 4.8731C5.2164 4.50402 5.66499 4.3007 6.14215 4.3007C6.61931 4.3007 7.0679 4.50402 7.40506 4.8731C7.73954 5.24004 7.92739 5.73724 7.92739 6.25562C7.92739 6.77399 7.73954 7.27119 7.40506 7.63813C7.0679 8.00722 6.61931 8.21053 6.14215 8.21053Z" fill="#425763"/>
</svg>
